<svg width="27" height="28" viewBox="0 0 27 28" fill="none" xmlns="http://www.w3.org/2000/svg">
<g id="Group 1000004111">
<path id="Vector" d="M26.9996 13.6805C26.9996 21.4229 20.487 27.6399 12.6394 27.1539C5.91549 26.7372 0.4429 21.2646 0.0267295 14.5407C-0.459733 6.69309 5.75722 0.180542 13.4997 0.180542C15.6261 0.180542 17.6395 0.671195 19.4303 1.54962C19.9103 1.78517 20.0862 2.38289 19.8213 2.84748L19.8195 2.85073C19.5746 3.27994 19.0402 3.43961 18.597 3.22128C16.8197 2.34612 14.7877 1.92017 12.6431 2.07332C7.01038 2.47506 2.41016 6.99288 1.90881 12.6177C1.28502 19.6186 6.8954 25.4948 13.8088 25.3141C19.7292 25.1596 24.6711 20.4644 25.1045 14.558C25.2171 13.0236 25.0323 11.5382 24.5929 10.1686C24.4537 9.7343 24.6562 9.26553 25.064 9.06163C25.5732 8.80699 26.1975 9.06163 26.3702 9.60396C26.7789 10.8892 26.9996 12.2588 26.9996 13.6805Z" fill="#AEE090"/>
<path id="Vector_2" d="M6.70762 10.1761L14.0693 20.1367C14.6251 20.889 15.7563 20.8238 16.2251 20.0129L26.863 1.59803C27.417 0.639066 26.1531 -0.325015 25.3994 0.482188L14.3165 12.3537L7.88584 8.79442C7.01672 8.31354 6.11362 9.37212 6.70762 10.1761Z" fill="#6BB577"/>
</g>
</svg>
