<svg width="15" height="27" viewBox="0 0 15 27" fill="none" xmlns="http://www.w3.org/2000/svg">
<g id="Group">
<path id="Vector" d="M7.17239 0.680542L0 10.5426H4.93101V15.9219H9.41378V10.5426H14.3448L7.17239 0.680542Z" fill="#70479B"/>
<path id="Vector_2" d="M8.51725 17.715H5.82757C5.33449 17.715 4.93103 18.1185 4.93103 18.6115C4.93103 19.1046 5.33449 19.5081 5.82757 19.5081H8.51725C9.01034 19.5081 9.4138 19.1046 9.4138 18.6115C9.4138 18.1185 9.01034 17.715 8.51725 17.715Z" fill="#70479B"/>
<path id="Vector_3" d="M8.51725 21.3012H5.82757C5.33449 21.3012 4.93103 21.7047 4.93103 22.1978C4.93103 22.6909 5.33449 23.0943 5.82757 23.0943H8.51725C9.01034 23.0943 9.4138 22.6909 9.4138 22.1978C9.4138 21.7047 9.01034 21.3012 8.51725 21.3012Z" fill="#70479B"/>
<path id="Vector_4" d="M8.51725 24.8875H5.82757C5.33449 24.8875 4.93103 25.2909 4.93103 25.784C4.93103 26.2771 5.33449 26.6805 5.82757 26.6805H8.51725C9.01034 26.6805 9.4138 26.2771 9.4138 25.784C9.4138 25.2909 9.01034 24.8875 8.51725 24.8875Z" fill="#70479B"/>
</g>
</svg>
