<svg width="39" height="40" viewBox="0 0 39 40" fill="none" xmlns="http://www.w3.org/2000/svg">
<g id="Group 1000004018">
<circle id="Ellipse 8" cx="19.5" cy="20.375" r="19.5" fill="#FBEFEC"/>
<g id="bell icon">
<path id="Vector" d="M17.2808 13.6673C17.2808 13.1414 17.492 12.6369 17.868 12.265C18.244 11.8931 18.7539 11.6842 19.2856 11.6842C19.8172 11.6842 20.3271 11.8931 20.7031 12.265C21.0791 12.6369 21.2903 13.1414 21.2903 13.6673C22.4414 14.2057 23.4227 15.0439 24.129 16.0919C24.8353 17.14 25.24 18.3584 25.2997 19.6166V22.5913C25.3752 23.2077 25.5958 23.798 25.944 24.3147C26.2922 24.8314 26.7582 25.2599 27.3044 25.5659H11.2667C11.8129 25.2599 12.2789 24.8314 12.6271 24.3147C12.9753 23.798 13.196 23.2077 13.2714 22.5913V19.6166C13.3311 18.3584 13.7358 17.14 14.4421 16.0919C15.1484 15.0439 16.1297 14.2057 17.2808 13.6673" stroke="#2C3E50" stroke-width="1.73333" stroke-linecap="round" stroke-linejoin="round"/>
<path id="Vector_2" d="M16.2787 25.5662V26.5578C16.2787 27.3467 16.5956 28.1033 17.1595 28.6612C17.7234 29.219 18.4883 29.5324 19.2858 29.5324C20.0834 29.5324 20.8482 29.219 21.4122 28.6612C21.9761 28.1033 22.2929 27.3467 22.2929 26.5578V25.5662" stroke="#2C3E50" stroke-width="1.73333" stroke-linecap="round" stroke-linejoin="round"/>
</g>
</g>
</svg>
