<svg width="32" height="32" viewBox="0 0 32 32" fill="none" xmlns="http://www.w3.org/2000/svg">
<path d="M30.4232 16H29.4824C29.4803 13.4505 28.7797 10.9504 27.4566 8.77109C26.1335 6.59181 24.2386 4.81671 21.9777 3.63861V3.67077C21.9772 4.07603 21.8894 4.47642 21.7201 4.84461C21.5508 5.21281 21.304 5.54014 20.9967 5.80427L20.3105 6.39393C22.0982 7.28306 23.6025 8.65302 24.6546 10.3499C25.7066 12.0468 26.2647 14.0034 26.2661 16H25.3253C25.1982 15.9995 25.0737 16.0356 24.9665 16.1039C24.8593 16.1722 24.774 16.2698 24.7208 16.3852C24.6675 16.5006 24.6485 16.6289 24.6661 16.7547C24.6837 16.8806 24.737 16.9988 24.8198 17.0952L27.3682 20.0569C27.431 20.1296 27.5087 20.1879 27.596 20.2279C27.6833 20.2679 27.7782 20.2886 27.8743 20.2886C27.9703 20.2886 28.0652 20.2679 28.1525 20.2279C28.2399 20.1879 28.3175 20.1296 28.3803 20.0569L30.9298 17.0952C31.0126 16.9987 31.066 16.8804 31.0835 16.7545C31.1011 16.6285 31.082 16.5001 31.0286 16.3847C30.9752 16.2693 30.8897 16.1716 30.7824 16.1034C30.6751 16.0352 30.5504 15.9993 30.4232 16Z" fill="#6FCDE2"/>
<path d="M5.34925 10.543L5.94427 11.2345C6.83151 9.4465 8.20029 7.94168 9.89649 6.88948C11.5927 5.83729 13.5489 5.27951 15.545 5.27896V6.21973C15.5445 6.34682 15.5806 6.47136 15.6489 6.57854C15.7171 6.68572 15.8148 6.77102 15.9302 6.82428C16.0456 6.87754 16.1738 6.89652 16.2997 6.87896C16.4256 6.8614 16.5437 6.80804 16.6401 6.72523L19.6018 4.17683C19.6745 4.11408 19.7329 4.0364 19.7729 3.94907C19.8128 3.86175 19.8335 3.76684 19.8335 3.6708C19.8335 3.57476 19.8128 3.47984 19.7729 3.39252C19.7329 3.3052 19.6745 3.22752 19.6018 3.16476L16.6401 0.615292C16.5437 0.532424 16.4254 0.479047 16.2994 0.461524C16.1735 0.444002 16.0451 0.463074 15.9297 0.516466C15.8143 0.569857 15.7166 0.655317 15.6484 0.762656C15.5802 0.869996 15.5443 0.994686 15.545 1.12186V2.06264C12.9955 2.06474 10.4954 2.76538 8.31608 4.08845C6.13679 5.41152 4.3617 7.30644 3.18359 9.56739H3.21576C3.62065 9.5668 4.0209 9.65366 4.38912 9.82204C4.75734 9.99043 5.08485 10.2364 5.34925 10.543Z" fill="#346D92"/>
<path d="M25.7401 21.4517L25.1505 20.7656C24.2614 22.5532 22.8914 24.0576 21.1945 25.1096C19.4976 26.1616 17.541 26.7197 15.5444 26.7211V25.7803C15.5449 25.6533 15.5088 25.5287 15.4405 25.4215C15.3722 25.3144 15.2746 25.2291 15.1592 25.1758C15.0438 25.1225 14.9156 25.1036 14.7897 25.1211C14.6638 25.1387 14.5457 25.192 14.4492 25.2748L11.4875 27.8232C11.4148 27.886 11.3565 27.9637 11.3165 28.051C11.2766 28.1383 11.2559 28.2332 11.2559 28.3293C11.2559 28.4253 11.2766 28.5202 11.3165 28.6076C11.3565 28.6949 11.4148 28.7726 11.4875 28.8353L14.4492 31.3848C14.5457 31.4677 14.664 31.521 14.79 31.5386C14.9159 31.5561 15.0443 31.537 15.1597 31.4836C15.2751 31.4302 15.3728 31.3448 15.441 31.2374C15.5092 31.1301 15.5451 31.0054 15.5444 30.8782V29.9374C18.0939 29.9353 20.594 29.2347 22.7733 27.9116C24.9526 26.5886 26.7277 24.6936 27.9058 22.4327H27.8736C27.4684 22.4323 27.068 22.3444 26.6998 22.1751C26.3316 22.0058 26.0043 21.7591 25.7401 21.4517Z" fill="#25A3DA"/>
<path d="M4.82376 16H5.76453C5.89162 16.0005 6.01616 15.9645 6.12334 15.8962C6.23052 15.8279 6.31582 15.7302 6.36908 15.6148C6.42234 15.4994 6.44132 15.3712 6.42376 15.2453C6.4062 15.1194 6.35284 15.0013 6.27003 14.9049L3.72163 11.9432C3.65888 11.8705 3.5812 11.8121 3.49387 11.7722C3.40655 11.7322 3.31164 11.7115 3.2156 11.7115C3.11956 11.7115 3.02464 11.7322 2.93732 11.7722C2.85 11.8121 2.77232 11.8705 2.70956 11.9432L0.160092 14.9049C0.0772235 15.0013 0.0238465 15.1196 0.00632423 15.2456C-0.0111981 15.3715 0.00787349 15.4999 0.0612654 15.6153C0.114657 15.7308 0.200117 15.8284 0.307456 15.8966C0.414795 15.9648 0.539486 16.0007 0.666662 16H1.60744C1.60954 18.5495 2.31018 21.0497 3.63325 23.2289C4.95632 25.4082 6.85124 27.1833 9.11219 28.3614V28.3293C9.11109 27.9251 9.19775 27.5254 9.3662 27.158C9.53464 26.7906 9.78085 26.4641 10.0878 26.2011L10.7793 25.6061C8.99166 24.717 7.48732 23.347 6.43528 21.6501C5.38324 19.9532 4.82517 17.9966 4.82376 16Z" fill="#4D88A9"/>
</svg>
