<svg width="22" height="20" viewBox="0 0 22 20" fill="none" xmlns="http://www.w3.org/2000/svg">
<path d="M11 13C12.1046 13 13 12.1046 13 11C13 9.89543 12.1046 9 11 9C9.89543 9 9 9.89543 9 11C9 12.1046 9.89543 13 11 13Z" stroke="white" stroke-width="1.5" stroke-linecap="round" stroke-linejoin="round"/>
<path d="M13 9L15 7" stroke="white" stroke-width="1.5" stroke-linecap="round" stroke-linejoin="round"/>
<path d="M4.77778 19C3.1535 17.6966 1.97101 15.9153 1.3942 13.903C0.817383 11.8908 0.874801 9.74722 1.55849 7.76939C2.24219 5.79156 3.5183 4.07742 5.20998 2.86451C6.90167 1.6516 8.92515 1 11 1C13.0749 1 15.0983 1.6516 16.79 2.86451C18.4817 4.07742 19.7578 5.79156 20.4415 7.76939C21.1252 9.74722 21.1826 11.8908 20.6058 13.903C20.029 15.9153 18.8465 17.6966 17.2222 19H4.77778Z" stroke="white" stroke-width="1.5" stroke-linecap="round" stroke-linejoin="round"/>
</svg>
