<svg width="13" height="18" viewBox="0 0 13 18" fill="none" xmlns="http://www.w3.org/2000/svg">
<path d="M10.4441 15.7721C10.444 15.7611 10.4428 15.7501 10.4408 15.7392C10.4404 15.7373 10.4399 15.7354 10.4395 15.7334C10.4372 15.7233 10.4341 15.7133 10.4302 15.7037C10.43 15.7032 10.4299 15.7026 10.4297 15.7021C10.4295 15.7017 10.4294 15.7012 10.4292 15.7008L9.05469 12.5356C9.01279 12.4391 8.94362 12.3569 8.85566 12.2992C8.76771 12.2415 8.66482 12.2107 8.55962 12.2107H6.99743V11.1461C6.99732 11.0469 6.95787 10.9518 6.88772 10.8816C6.81758 10.8115 6.72247 10.772 6.62328 10.7719H5.84722C5.74802 10.772 5.65292 10.8115 5.58277 10.8816C5.51263 10.9518 5.47317 11.0469 5.47306 11.1461V12.2107H4.06946C3.96761 12.211 3.86792 12.24 3.78179 12.2943C3.69566 12.3487 3.62658 12.4262 3.58245 12.518L2.06495 15.6949C2.06448 15.6959 2.06418 15.6969 2.06373 15.6979C2.06202 15.7017 2.06058 15.7055 2.05912 15.7094C2.05657 15.7162 2.05442 15.7231 2.05269 15.7301C2.05195 15.7331 2.05098 15.7359 2.05038 15.7389C2.04854 15.7489 2.04752 15.759 2.04734 15.7692C2.04731 15.7707 2.04688 15.7722 2.04688 15.7738V17.3559C2.04707 17.5266 2.11499 17.6904 2.23575 17.8111C2.3565 17.9319 2.52023 17.9998 2.691 18H9.80012C9.97089 17.9998 10.1346 17.9319 10.2554 17.8111C10.3761 17.6904 10.4441 17.5266 10.4442 17.3559V15.7738C10.4442 15.7733 10.4441 15.7727 10.4441 15.7721ZM5.83979 12.9329V11.1461C5.83979 11.1441 5.84058 11.1422 5.84197 11.1408C5.84336 11.1394 5.84525 11.1387 5.84722 11.1387H6.62328C6.62524 11.1387 6.62713 11.1394 6.62853 11.1408C6.62992 11.1422 6.6307 11.1441 6.63071 11.1461V12.9329C6.63082 13.0314 6.66999 13.1258 6.73964 13.1954C6.80928 13.2651 6.90371 13.3043 7.0022 13.3044H7.31599C7.3444 13.3044 7.37219 13.3127 7.39589 13.3284C7.41959 13.3441 7.43816 13.3664 7.44928 13.3925C7.46041 13.4186 7.4636 13.4475 7.45846 13.4754C7.45333 13.5034 7.44008 13.5292 7.42039 13.5497L6.37123 14.6406C6.35792 14.6545 6.34195 14.6656 6.32426 14.6732C6.30657 14.6809 6.28753 14.6849 6.26827 14.685H6.26678C6.24776 14.685 6.22892 14.6813 6.21136 14.674C6.19379 14.6668 6.17784 14.6561 6.16443 14.6426L5.07277 13.5517C5.05249 13.5315 5.03867 13.5057 5.03306 13.4776C5.02746 13.4495 5.03032 13.4203 5.04128 13.3938C5.05224 13.3674 5.07081 13.3447 5.09463 13.3288C5.11846 13.3129 5.14648 13.3044 5.17514 13.3044H5.4683C5.56679 13.3043 5.66122 13.2651 5.73086 13.1955C5.80051 13.1258 5.83968 13.0314 5.83979 12.9329ZM10.0775 17.3559C10.0774 17.4294 10.0482 17.4999 9.99618 17.5519C9.94417 17.6039 9.87366 17.6332 9.80012 17.6333H2.69101C2.61746 17.6332 2.54695 17.6039 2.49495 17.5519C2.44294 17.4999 2.41369 17.4294 2.4136 17.3559V15.9571H3.39322C3.44185 15.9571 3.48849 15.9378 3.52288 15.9034C3.55726 15.869 3.57658 15.8224 3.57658 15.7737C3.57658 15.7251 3.55726 15.6785 3.52288 15.6441C3.48849 15.6097 3.44185 15.5904 3.39322 15.5904H2.52116L3.91323 12.676C3.9274 12.6466 3.94956 12.6217 3.97719 12.6043C4.00481 12.5869 4.03679 12.5775 4.06946 12.5774H5.47306V12.9329C5.47306 12.9341 5.47256 12.9354 5.47167 12.9363C5.47077 12.9371 5.46956 12.9376 5.4683 12.9376H5.17514C5.07394 12.9376 4.97501 12.9677 4.89087 13.0239C4.80673 13.0801 4.74116 13.16 4.70245 13.2536C4.66375 13.3471 4.65364 13.4499 4.67342 13.5492C4.69319 13.6484 4.74196 13.7396 4.81355 13.8111L5.90523 14.902C5.95258 14.9496 6.00891 14.9874 6.07096 15.0131C6.133 15.0388 6.19953 15.0519 6.26668 15.0517C6.26842 15.0517 6.27019 15.0517 6.27193 15.0517C6.33997 15.0512 6.40722 15.0371 6.46968 15.0101C6.53215 14.9832 6.58857 14.9439 6.63557 14.8947L7.68471 13.8039C7.75425 13.7315 7.801 13.6404 7.81914 13.5417C7.83727 13.443 7.82599 13.3412 7.78669 13.2489C7.7474 13.1566 7.68182 13.0778 7.59813 13.0225C7.51444 12.9672 7.41633 12.9377 7.316 12.9377H7.0022C7.00094 12.9377 6.99973 12.9372 6.99883 12.9363C6.99794 12.9354 6.99744 12.9341 6.99744 12.9329V12.5774H8.55961C8.59329 12.5774 8.62623 12.5873 8.65437 12.6058C8.68252 12.6243 8.70464 12.6506 8.71804 12.6815L9.9814 15.5904H4.23155C4.18292 15.5904 4.13628 15.6097 4.1019 15.6441C4.06751 15.6785 4.04819 15.7251 4.04819 15.7737C4.04819 15.8224 4.06751 15.869 4.1019 15.9034C4.13628 15.9378 4.18292 15.9571 4.23155 15.9571H10.0775V17.3559Z" fill="white"/>
<path d="M12.3013 0.965868C12.1902 0.838964 12.0366 0.75695 11.8693 0.7352C11.7506 0.719908 11.6112 0.7039 11.4552 0.688949L11.4555 0.589201C11.4558 0.477042 11.4163 0.368413 11.344 0.282698C11.2716 0.196983 11.1712 0.139759 11.0606 0.121238C10.6452 0.0509736 9.81815 -0.0539236 8.94533 0.0327805C7.83599 0.14301 7.01545 0.522197 6.50652 1.15981C6.47543 1.19941 6.43576 1.23143 6.39048 1.25344C6.34521 1.27546 6.29552 1.2869 6.24518 1.2869C6.19484 1.2869 6.14515 1.27546 6.09988 1.25344C6.05461 1.23143 6.01493 1.19941 5.98385 1.15981C5.47493 0.522204 4.65439 0.143017 3.54506 0.0327878C2.67221 -0.0538429 1.84517 0.0509809 1.42981 0.121245C1.31926 0.139728 1.21887 0.196873 1.14655 0.28249C1.07422 0.368107 1.03465 0.476631 1.0349 0.588709L1.03463 0.68903C0.879242 0.703699 0.740342 0.719809 0.621961 0.7352C0.45479 0.757062 0.301234 0.838853 0.189813 0.965382C0.0783927 1.09191 0.0166797 1.25458 0.0161359 1.42317L0 7.05529C1.86426e-05 7.15017 0.0194932 7.24403 0.05722 7.33109C0.0949469 7.41814 0.150125 7.49654 0.219344 7.56143C0.288564 7.62631 0.370354 7.67632 0.459661 7.70835C0.548969 7.74038 0.643896 7.75376 0.738578 7.74766C3.26089 7.58337 4.67094 8.20276 5.40952 8.75101C5.64604 8.92835 5.9337 9.02421 6.22932 9.02421C6.52495 9.02421 6.81261 8.92835 7.04913 8.75101C7.78808 8.20276 9.19812 7.58337 11.7201 7.74766C11.8147 7.75384 11.9097 7.74053 11.999 7.70855C12.0883 7.67657 12.1701 7.6266 12.2393 7.56173C12.3086 7.49687 12.3638 7.41849 12.4015 7.33144C12.4392 7.24439 12.4587 7.15053 12.4586 7.05566L12.4748 1.4239C12.4748 1.25517 12.4131 1.09225 12.3013 0.965868ZM1.40161 0.589226C1.40148 0.563779 1.41039 0.539112 1.42676 0.519625C1.44312 0.500137 1.46588 0.487097 1.49096 0.482829C2.21091 0.361077 4.64196 0.0665042 5.69727 1.3886C5.78996 1.5054 5.91749 1.58959 6.06132 1.62892L6.04647 6.22694C6.04639 6.25102 6.05106 6.27488 6.0602 6.29716C6.06934 6.31943 6.08278 6.33969 6.09975 6.35678C6.11673 6.37386 6.1369 6.38743 6.15912 6.39672C6.18133 6.40601 6.20516 6.41083 6.22924 6.41091H6.22985C6.27838 6.41091 6.32492 6.39167 6.35929 6.35742C6.39366 6.32316 6.41305 6.27668 6.41321 6.22815L6.42807 1.62919C6.57231 1.59 6.70024 1.5057 6.79317 1.38862C7.84848 0.0664895 10.2795 0.361118 10.9994 0.482848C11.0245 0.487072 11.0472 0.500032 11.0635 0.519421C11.0799 0.538811 11.0889 0.563374 11.0888 0.588746L11.0734 6.29156C11.0734 6.3066 11.0702 6.32146 11.0641 6.33519C11.058 6.34893 11.0491 6.36124 11.0379 6.37134C11.0268 6.38145 11.0137 6.38912 10.9994 6.39386C10.9851 6.39861 10.97 6.40034 10.9551 6.39893C8.3647 6.16793 7.01849 6.96738 6.44659 7.46462C6.43599 7.47371 6.42485 7.48213 6.41322 7.48985V6.86538C6.41322 6.81675 6.3939 6.77012 6.35951 6.73573C6.32513 6.70134 6.27849 6.68202 6.22986 6.68202C6.18123 6.68202 6.13459 6.70134 6.1002 6.73573C6.06581 6.77012 6.04649 6.81675 6.04649 6.86538V7.48979C6.03487 7.48207 6.02372 7.47365 6.01312 7.46457C5.5108 7.02783 4.41147 6.35792 2.39597 6.35792C2.11684 6.35792 1.81976 6.37078 1.50466 6.39889C1.48973 6.4003 1.47467 6.39859 1.46044 6.39387C1.4462 6.38915 1.4331 6.38153 1.42197 6.37148C1.41084 6.36143 1.40192 6.34918 1.39577 6.33551C1.38962 6.32183 1.38639 6.30702 1.38626 6.29203L1.40161 0.589226ZM12.0919 7.05531C12.0919 7.10003 12.0828 7.14428 12.065 7.18532C12.0473 7.22636 12.0213 7.26332 11.9886 7.29392C11.956 7.32451 11.9175 7.34808 11.8754 7.36318C11.8333 7.37828 11.7885 7.38458 11.7439 7.38169C9.11084 7.21043 7.61865 7.87163 6.83057 8.45692C6.65706 8.5869 6.44611 8.65715 6.22932 8.65715C6.01254 8.65715 5.80159 8.5869 5.62808 8.45692C4.92654 7.93581 3.66649 7.35419 1.5395 7.35419C1.27803 7.35419 1.00311 7.36336 0.714741 7.38169C0.670162 7.3845 0.62548 7.37815 0.583444 7.36305C0.541408 7.34794 0.502907 7.3244 0.470309 7.29386C0.437711 7.26332 0.411705 7.22644 0.393891 7.18548C0.376076 7.14452 0.366831 7.10034 0.366722 7.05568L0.382858 1.42393C0.383132 1.34432 0.412274 1.26752 0.464877 1.20776C0.51748 1.14801 0.589971 1.10937 0.668901 1.09901C0.774554 1.08548 0.897369 1.07087 1.03363 1.05733L1.01952 6.29156C1.01958 6.3575 1.03337 6.4227 1.06001 6.48302C1.08665 6.54334 1.12555 6.59746 1.17425 6.64192C1.22295 6.68638 1.28037 6.72021 1.34286 6.74127C1.40535 6.76232 1.47153 6.77014 1.53721 6.76421C3.99249 6.54518 5.24455 7.28242 5.77248 7.74136C5.89961 7.85103 6.06192 7.91136 6.22982 7.91136C6.39772 7.91136 6.56002 7.85103 6.68716 7.74136C7.21509 7.28238 8.4673 6.54496 10.9225 6.76421C10.9881 6.77013 11.0542 6.76233 11.1167 6.74131C11.1791 6.72028 11.2365 6.68649 11.2852 6.64209C11.3339 6.59768 11.3728 6.54363 11.3995 6.48337C11.4262 6.42311 11.44 6.35796 11.4401 6.29206L11.4543 1.0571C11.5919 1.07061 11.7159 1.08518 11.8224 1.09905C11.9012 1.10937 11.9735 1.14791 12.0261 1.20752C12.0786 1.26714 12.1077 1.34377 12.1081 1.42323L12.0919 7.05531Z" fill="white"/>
<path d="M7.53771 3.5186C7.58044 3.51863 7.62182 3.50369 7.65466 3.47637C7.66249 3.46989 8.45338 2.8326 9.92818 3.2202C9.95147 3.22633 9.97573 3.2278 9.99959 3.22454C10.0235 3.22128 10.0464 3.21336 10.0672 3.20122C10.088 3.18908 10.1062 3.17296 10.1208 3.15379C10.1354 3.13461 10.146 3.11276 10.1521 3.08947C10.1583 3.06618 10.1597 3.04191 10.1565 3.01805C10.1532 2.9942 10.1453 2.97121 10.1331 2.95042C10.121 2.92962 10.1049 2.91142 10.0857 2.89685C10.0665 2.88228 10.0447 2.87164 10.0214 2.86551C8.36638 2.43053 7.45838 3.16276 7.42055 3.1941C7.39151 3.21818 7.37061 3.25064 7.36069 3.28704C7.35078 3.32344 7.35233 3.36202 7.36514 3.3975C7.37796 3.43299 7.4014 3.46366 7.43229 3.48533C7.46317 3.507 7.49999 3.51862 7.53771 3.5186Z" fill="white"/>
<path d="M10.0213 3.90529C8.36624 3.47024 7.4583 4.20246 7.42047 4.23383C7.38342 4.26492 7.36016 4.30939 7.35575 4.35756C7.35133 4.40573 7.36613 4.45368 7.39691 4.49099C7.4277 4.5283 7.47197 4.55193 7.5201 4.55674C7.56823 4.56155 7.61631 4.54715 7.65387 4.51668C7.68633 4.49036 8.46553 3.87549 9.9281 4.25998C9.95139 4.2661 9.97565 4.26757 9.99951 4.26431C10.0234 4.26106 10.0464 4.25313 10.0672 4.24099C10.0879 4.22885 10.1061 4.21273 10.1207 4.19356C10.1353 4.17439 10.1459 4.15253 10.1521 4.12924C10.1582 4.10595 10.1596 4.08168 10.1564 4.05783C10.1531 4.03397 10.1452 4.01098 10.1331 3.99019C10.1209 3.96939 10.1048 3.95119 10.0856 3.93662C10.0665 3.92205 10.0446 3.91141 10.0213 3.90529Z" fill="white"/>
<path d="M10.0213 4.94501C8.36624 4.50999 7.4583 5.24218 7.42047 5.27355C7.38342 5.30464 7.36016 5.34911 7.35575 5.39728C7.35133 5.44545 7.36613 5.4934 7.39691 5.53071C7.4277 5.56802 7.47197 5.59165 7.5201 5.59646C7.56823 5.60127 7.61631 5.58687 7.65387 5.5564C7.68633 5.53008 8.46553 4.91521 9.9281 5.2997C9.95139 5.30582 9.97565 5.30729 9.99951 5.30403C10.0234 5.30078 10.0464 5.29285 10.0672 5.28071C10.0879 5.26857 10.1061 5.25245 10.1207 5.23328C10.1353 5.21411 10.1459 5.19225 10.1521 5.16896C10.1582 5.14567 10.1596 5.12141 10.1564 5.09755C10.1531 5.07369 10.1452 5.0507 10.1331 5.02991C10.1209 5.00911 10.1048 4.99091 10.0856 4.97634C10.0665 4.96178 10.0446 4.95113 10.0213 4.94501Z" fill="white"/>
<path d="M2.26872 3.0895C2.28113 3.13651 2.31168 3.17667 2.35366 3.20118C2.39565 3.22568 2.44564 3.23253 2.49267 3.22022C3.95353 2.83631 4.73265 3.44917 4.76678 3.47689C4.78535 3.49222 4.80675 3.50375 4.82977 3.51081C4.8528 3.51787 4.87698 3.52032 4.90095 3.51804C4.92492 3.51575 4.94821 3.50876 4.96948 3.49748C4.99075 3.48619 5.00959 3.47083 5.02493 3.45226C5.04026 3.43369 5.05178 3.41229 5.05885 3.38926C5.06591 3.36624 5.06836 3.34206 5.06608 3.31809C5.06379 3.29411 5.0568 3.27083 5.04552 3.24956C5.03423 3.22829 5.01886 3.20945 5.0003 3.19411C4.96246 3.16274 4.0545 2.4306 2.39945 2.86553C2.35242 2.8779 2.31222 2.90844 2.28771 2.95044C2.26319 2.99244 2.25636 3.04246 2.26872 3.0895Z" fill="white"/>
<path d="M2.39945 3.90528C2.37616 3.91141 2.35431 3.92205 2.33513 3.93662C2.31596 3.95119 2.29984 3.96939 2.2877 3.99019C2.27556 4.01098 2.26764 4.03397 2.26438 4.05783C2.26112 4.08168 2.2626 4.10595 2.26872 4.12924C2.27484 4.15253 2.28549 4.17439 2.30005 4.19356C2.31462 4.21273 2.33282 4.22885 2.35362 4.24099C2.37442 4.25313 2.3974 4.26105 2.42126 4.26431C2.44512 4.26757 2.46938 4.2661 2.49267 4.25997C3.9536 3.87588 4.73265 4.48893 4.76678 4.51661C4.80428 4.54758 4.85254 4.56238 4.90096 4.55776C4.92493 4.55547 4.94821 4.54849 4.96948 4.5372C4.99076 4.52591 5.0096 4.51055 5.02493 4.49198C5.04026 4.47341 5.05179 4.45201 5.05885 4.42898C5.06591 4.40596 5.06836 4.38178 5.06608 4.3578C5.06379 4.33383 5.0568 4.31055 5.04552 4.28928C5.03423 4.268 5.01887 4.24916 5.0003 4.23383C4.96246 4.20246 4.05443 3.47016 2.39945 3.90528Z" fill="white"/>
<path d="M2.39945 4.94502C2.35242 4.95738 2.31222 4.98792 2.2877 5.02992C2.26319 5.07192 2.25636 5.12194 2.26872 5.16897C2.28108 5.21601 2.31162 5.25621 2.35362 5.28072C2.39562 5.30524 2.44564 5.31207 2.49267 5.29971C3.9536 4.91562 4.73265 5.52866 4.76678 5.55634C4.80428 5.58731 4.85254 5.60211 4.90095 5.59749C4.94937 5.59287 4.99396 5.56921 5.02493 5.53171C5.05589 5.49421 5.0707 5.44595 5.06608 5.39754C5.06146 5.34913 5.0378 5.30453 5.0003 5.27357C4.96246 5.24219 4.05443 4.5099 2.39945 4.94502Z" fill="white"/>
<path d="M5.37378 10.1639C5.37378 10.2125 5.3931 10.2592 5.42748 10.2935C5.46187 10.3279 5.50851 10.3473 5.55714 10.3473H6.91992C6.96855 10.3473 7.01519 10.3279 7.04958 10.2935C7.08397 10.2592 7.10328 10.2125 7.10328 10.1639C7.10328 10.1153 7.08397 10.0686 7.04958 10.0342C7.01519 9.99985 6.96855 9.98053 6.91992 9.98053H5.55714C5.50851 9.98053 5.46187 9.99985 5.42748 10.0342C5.3931 10.0686 5.37378 10.1153 5.37378 10.1639Z" fill="white"/>
<path d="M6.56109 9.73885C6.60972 9.73885 6.65636 9.71953 6.69074 9.68515C6.72513 9.65076 6.74445 9.60412 6.74445 9.55549C6.74445 9.50686 6.72513 9.46022 6.69074 9.42584C6.65636 9.39145 6.60972 9.37213 6.56109 9.37213H5.89796C5.84933 9.37213 5.80269 9.39145 5.7683 9.42584C5.73392 9.46022 5.7146 9.50686 5.7146 9.55549C5.7146 9.60412 5.73392 9.65076 5.7683 9.68515C5.80269 9.71953 5.84933 9.73885 5.89796 9.73885H6.56109Z" fill="white"/>
</svg>
