<svg width="18" height="18" viewBox="0 0 18 18" fill="none" xmlns="http://www.w3.org/2000/svg">
<path d="M2.34741 6.64545H9.09681" stroke="white" stroke-width="0.8" stroke-miterlimit="10" stroke-linecap="round" stroke-linejoin="round"/>
<path d="M2.34741 8.49805H9.09681" stroke="white" stroke-width="0.8" stroke-miterlimit="10" stroke-linecap="round" stroke-linejoin="round"/>
<path d="M2.34741 10.3506H9.09681" stroke="white" stroke-width="0.8" stroke-miterlimit="10" stroke-linecap="round" stroke-linejoin="round"/>
<path d="M2.34741 12.2032H9.09681" stroke="white" stroke-width="0.8" stroke-miterlimit="10" stroke-linecap="round" stroke-linejoin="round"/>
<path d="M2.34741 14.9182H5.73078" stroke="white" stroke-width="0.8" stroke-miterlimit="10" stroke-linecap="round" stroke-linejoin="round"/>
<mask id="mask0_1401_1973" style="mask-type:luminance" maskUnits="userSpaceOnUse" x="0" y="0" width="18" height="18">
<path d="M0 0H18V18H0V0Z" fill="white"/>
</mask>
<g mask="url(#mask0_1401_1973)">
<path d="M6.58831 3.59251H6.13121C5.9504 3.59251 5.80383 3.44594 5.80383 3.26513V2.40964C5.80383 2.22883 5.9504 2.08226 6.13121 2.08226H11.5441C11.7249 2.08226 11.8715 2.22883 11.8715 2.40964V3.26513C11.8715 3.44594 11.7249 3.59251 11.5441 3.59251H7.82089M14.1065 4.81531V1.30524C14.1065 0.7304 13.6405 0.264404 13.0656 0.264404H4.12055C3.8445 0.264404 3.57974 0.374092 3.38455 0.569279L0.666168 3.28767C0.470981 3.48285 0.361328 3.74758 0.361328 4.02363V16.6962C0.361328 17.2711 0.827324 17.7371 1.40213 17.7371H13.0656C13.6405 17.7371 14.1065 17.2711 14.1065 16.6962V16.3412" stroke="white" stroke-width="0.8" stroke-miterlimit="10" stroke-linecap="round" stroke-linejoin="round"/>
<path d="M12.5334 12.8316V15.4949C12.5334 15.7264 12.7873 15.8683 12.9845 15.7469L13.9514 15.1516C13.999 15.1223 14.0528 15.1077 14.1065 15.1077C14.1603 15.1077 14.2142 15.1223 14.2617 15.1516L15.2286 15.7469C15.4258 15.8683 15.6797 15.7264 15.6797 15.4949V12.8316" stroke="white" stroke-width="0.8" stroke-miterlimit="10" stroke-linecap="round" stroke-linejoin="round"/>
<path d="M14.1059 11.6655C13.0312 11.6655 12.1599 10.7942 12.1599 9.71948C12.1599 8.64472 13.0312 7.77345 14.1059 7.77345C15.1807 7.77345 16.052 8.64472 16.052 9.71948C16.052 10.7942 15.1807 11.6655 14.1059 11.6655ZM17.4991 10.1646C17.3161 9.89604 17.3161 9.54293 17.4991 9.27437C17.7903 8.84698 17.5995 8.25976 17.1127 8.08514C16.8068 7.97542 16.5992 7.68974 16.5894 7.36493C16.5738 6.84803 16.0742 6.48507 15.5778 6.62995C15.2659 6.72094 14.93 6.61181 14.7311 6.35482C14.5729 6.15035 14.3394 6.04808 14.1059 6.04808C13.8724 6.04808 13.639 6.15035 13.4807 6.35482C13.2819 6.61181 12.946 6.72094 12.6341 6.62995C12.1376 6.48507 11.6381 6.84803 11.6224 7.36493C11.6126 7.68974 11.405 7.97542 11.0992 8.08514C10.6124 8.25976 10.4216 8.84698 10.7127 9.27437C10.8957 9.54293 10.8957 9.89604 10.7127 10.1646C10.4216 10.592 10.6124 11.1792 11.0992 11.3538C11.405 11.4635 11.6126 11.7492 11.6224 12.074C11.637 12.5557 12.0719 12.9038 12.5328 12.8316C12.5665 12.8264 12.6003 12.8189 12.6341 12.809C12.946 12.718 13.2819 12.8271 13.4807 13.0841C13.7972 13.4931 14.4147 13.4931 14.7311 13.0841C14.93 12.8271 15.2659 12.718 15.5778 12.809C15.6116 12.8189 15.6454 12.8264 15.679 12.8316C16.14 12.9038 16.5749 12.5557 16.5894 12.074C16.5992 11.7492 16.8068 11.4635 17.1127 11.3538C17.5995 11.1792 17.7903 10.592 17.4991 10.1646Z" stroke="white" stroke-width="0.8" stroke-miterlimit="10" stroke-linecap="round" stroke-linejoin="round"/>
<path d="M14.1067 7.77369C13.0319 7.77369 12.1606 8.64497 12.1606 9.71973C12.1606 10.7945 13.0319 11.6658 14.1067 11.6658C15.1814 11.6658 16.0527 10.7945 16.0527 9.71973C16.0527 8.64497 15.1814 7.77369 14.1067 7.77369Z" stroke="white" stroke-width="0.8" stroke-miterlimit="10" stroke-linecap="round" stroke-linejoin="round"/>
<path d="M3.68918 0.358309V2.9476C3.68918 3.30402 3.40026 3.5929 3.04392 3.5929H0.45459" stroke="white" stroke-width="0.8" stroke-miterlimit="10" stroke-linecap="round" stroke-linejoin="round"/>
</g>
</svg>
