<svg width="15" height="18" viewBox="0 0 15 18" fill="none" xmlns="http://www.w3.org/2000/svg">
<path d="M14.2635 14.8436L13.4596 4.71452C13.4095 4.06195 12.8577 3.55075 12.2032 3.55075H10.6154V3.47938C10.6154 1.56083 9.05459 0 7.13605 0C5.2175 0 3.65667 1.56083 3.65667 3.47938V3.55075H2.06894C1.41444 3.55075 0.862521 4.06192 0.812599 4.71315L0.00850509 14.845C-0.0537215 15.6562 0.227704 16.4638 0.780571 17.0607C1.33344 17.6576 2.11718 18 2.9308 18H11.3413C12.1548 18 12.9386 17.6576 13.4915 17.0607C14.0444 16.4638 14.3258 15.6562 14.2635 14.8436ZM4.71101 3.47938C4.71101 2.14221 5.79892 1.05434 7.13605 1.05434C8.47318 1.05434 9.56109 2.14225 9.56109 3.47938V3.55075H4.71101V3.47938ZM12.718 16.3443C12.3588 16.7321 11.8699 16.9457 11.3413 16.9457H2.93083C2.40222 16.9457 1.91334 16.7321 1.55411 16.3443C1.19492 15.9565 1.01935 15.4526 1.05971 14.927L1.86374 4.79514C1.87189 4.68854 1.96203 4.60508 2.06894 4.60508H3.65667V5.90358C3.65667 6.19471 3.89271 6.43075 4.18384 6.43075C4.47497 6.43075 4.71101 6.19471 4.71101 5.90358V4.60508H9.56109V5.90358C9.56109 6.19471 9.79713 6.43075 10.0883 6.43075C10.3794 6.43075 10.6154 6.19471 10.6154 5.90358V4.60508H12.2032C12.3101 4.60508 12.4002 4.68858 12.4085 4.79654L13.2123 14.9256C13.2528 15.4526 13.0772 15.9565 12.718 16.3443Z" fill="white"/>
<path d="M9.51088 8.93972C9.30508 8.73384 8.97127 8.73384 8.76543 8.93972L6.41151 11.2936L5.50637 10.3885C5.30053 10.1826 4.96673 10.1826 4.76085 10.3885C4.55498 10.5944 4.55498 10.9282 4.76085 11.134L6.03875 12.4119C6.14168 12.5149 6.27661 12.5664 6.41147 12.5664C6.54633 12.5664 6.6813 12.5149 6.7842 12.4119L9.51085 9.68527C9.71676 9.47936 9.71676 9.14559 9.51088 8.93972Z" fill="white"/>
</svg>
