<svg width="14" height="18" viewBox="0 0 14 18" fill="none" xmlns="http://www.w3.org/2000/svg">
<path d="M10.7844 11.6494C10.6989 10.1942 9.80001 8.91035 8.4307 8.48241C8.475 8.48241 8.475 8.43811 8.5162 8.43811C8.98711 8.0527 9.28658 7.45377 9.3291 6.81186C9.37163 6.16995 9.11514 5.52716 8.6872 5.05714C8.21673 4.58578 7.57527 4.28632 6.93292 4.28632C6.29057 4.28632 5.60613 4.58578 5.1782 5.05669C4.75026 5.5276 4.49332 6.21204 4.53629 6.81141C4.58059 7.45332 4.87873 8.05182 5.34919 8.43767C5.39349 8.43767 5.39349 8.48197 5.43469 8.48197L5.4059 8.49171C5.83206 8.78498 6.3805 8.95199 6.88995 8.86738C6.36621 8.78751 5.89216 8.51226 5.56316 8.097C5.2637 7.71159 5.0927 7.19815 5.13523 6.768C5.17952 5.82663 6.03407 5.05625 6.88995 5.09878C7.78879 5.05448 8.6017 5.82663 8.64467 6.768C8.68897 7.23891 8.5162 7.70938 8.21673 8.097C7.88774 8.51226 7.41368 8.78751 6.88995 8.86738C7.15268 8.91105 7.42164 8.89932 7.67957 8.83295C7.9375 8.76658 8.17871 8.64703 8.38773 8.48197C9.45757 9.16685 10.014 10.1937 10.0995 11.2636C9.45757 11.1781 4.32232 11.2636 3.68041 11.2636C3.76503 10.2075 4.30814 9.23418 5.35185 8.51032C4.06937 8.96218 3.16476 10.1835 3.08103 11.6915C2.95256 11.82 3.12533 11.9914 3.295 11.9914C10.3994 12.0769 10.5274 11.9914 10.4849 11.9914C10.6559 11.9896 10.8273 11.8182 10.7844 11.6494ZM5.39216 8.4802L5.35185 8.50855C5.37001 8.5019 5.38773 8.4957 5.4059 8.48994L5.39216 8.4802Z" fill="white"/>
<path d="M3.33789 14.6002C5.30658 15.1992 8.64459 15.1566 10.4418 14.6002C8.64459 14.0438 5.30658 14.0008 3.33789 14.6002Z" fill="white"/>
<path d="M13.5235 2.95951L13.4792 2.10364C13.4849 1.80351 13.4701 1.50335 13.4349 1.20523C13.3737 0.896114 13.2166 0.61415 12.9859 0.399421C12.7553 0.184692 12.4629 0.048126 12.1502 0.00913514C11.0901 -0.0351648 7.90312 0.0937481 6.84391 0.137162H8.98359L10.3959 0.181462L11.2518 0.225762C11.5512 0.225762 11.8507 0.225762 12.0647 0.270062C12.5781 0.398532 13.006 0.82647 13.049 1.33991C13.0933 1.59685 13.049 1.89631 13.049 2.15325L13.0047 3.00913C12.9192 7.80195 12.8337 13.2801 12.7907 16.1901C12.7907 16.2756 12.7464 16.4041 12.7464 16.4896C12.618 16.8746 12.2326 17.1745 11.8476 17.1745H1.66878C1.24084 17.1745 0.898404 16.8746 0.770377 16.4896C0.726077 16.4041 0.726077 16.2756 0.726077 16.1901C0.726077 16.1047 0.640578 9.89955 0.640578 9.81361C0.513437 0.391888 0.427938 1.80417 0.513437 1.33326C0.556394 1.07891 0.672278 0.842499 0.847015 0.652741C1.02175 0.462984 1.24783 0.328042 1.49778 0.264303C1.75472 0.220003 2.05419 0.220003 2.31069 0.220003L3.29503 0.175703L6.84745 0.131403L4.66257 0.0871031C3.65076 0.0897611 2.63762 0.00736314 1.58328 0.0494481C0.984346 0.134947 0.427938 0.648827 0.299468 1.24776C0.213969 1.7612 0.085499 9.29353 0.085499 9.80696C0 18.9221 0.085499 7.92377 0 16.1835C0 16.3545 0.0443 16.5259 0.085499 16.7399C0.299468 17.4243 0.984346 17.9803 1.71175 17.9803C2.35366 17.9803 10.271 18.0246 11.9827 17.9803C12.7101 17.936 13.395 17.4239 13.609 16.7399C13.6614 16.5589 13.6901 16.3719 13.6945 16.1835C13.6945 16.098 13.6515 10.1494 13.5235 2.95951Z" fill="white"/>
</svg>
