<svg width="15" height="18" viewBox="0 0 15 18" fill="none" xmlns="http://www.w3.org/2000/svg">
<path d="M13.8388 13.6406C13.9844 13.6406 14.1025 13.5226 14.1025 13.3769V7.04881C14.1025 6.73409 13.9798 6.41216 13.7571 6.14234L11.8016 3.77301C11.6992 3.64887 11.5814 3.54425 11.4535 3.46093C11.4613 3.38035 11.4658 3.29896 11.4658 3.2168V0.263672C11.4658 0.118055 11.3477 0 11.2021 0C11.0565 0 10.9384 0.118055 10.9384 0.263672C10.9384 0.263672 10.9379 3.24194 10.9377 3.25453C10.8627 3.24124 10.7865 3.23438 10.7099 3.23438H7.29976C7.05968 3.23438 6.82434 3.30174 6.61365 3.42553C6.60454 3.4288 6.59551 3.43245 6.58665 3.43678L4.01634 4.68876C3.73157 4.8316 3.50386 5.07119 3.37508 5.36338C3.37368 5.36658 3.37234 5.36978 3.37108 5.37301L2.30837 8.06852C2.25497 8.20401 2.32148 8.35711 2.45698 8.41055C2.48872 8.42307 2.52142 8.42897 2.55362 8.42897C2.65874 8.42897 2.75809 8.36566 2.79898 8.26195L3.85961 5.57164C3.93938 5.39344 4.07884 5.24743 4.25002 5.16151L5.60804 4.50004L4.25255 6.14237C4.04959 6.38825 3.94233 6.70174 3.94233 7.04888V16.1544C3.94233 16.2604 3.95165 16.3642 3.96856 16.4654L1.25161 15.2615C0.637848 14.9896 0.359691 14.2672 0.631661 13.6513C0.632821 13.6486 0.633946 13.6459 0.635071 13.6432L2.35362 9.37229C2.40797 9.23718 2.34254 9.08362 2.20744 9.02923C2.07226 8.97488 1.91877 9.04034 1.86438 9.17541L0.147347 13.4424C-0.23874 14.323 0.160074 15.3546 1.03796 15.7436L4.22397 17.1553C4.22787 17.157 4.23184 17.1583 4.23578 17.1598C4.55915 17.6651 5.1182 18 5.75288 18H12.2568C13.2573 18 14.1025 17.1548 14.1025 16.1543V14.6074C14.1025 14.4618 13.9845 14.3437 13.8388 14.3437C13.6932 14.3437 13.5752 14.4618 13.5752 14.6074V16.1543C13.5752 16.8689 12.9714 17.4727 12.2568 17.4727H5.75288C5.04533 17.4727 4.46968 16.8813 4.46968 16.1543V7.04881C4.46968 6.82247 4.53345 6.63041 4.65927 6.47801L6.61477 4.10868C6.79678 3.88818 7.04646 3.76169 7.29976 3.76169H10.7099C10.7596 3.76169 10.8091 3.76672 10.858 3.77621C10.6929 4.3391 10.2841 4.80879 9.73195 5.04416C9.58756 4.80267 9.3236 4.6406 9.02238 4.6406C8.56683 4.6406 8.19621 5.01122 8.19621 5.46677C8.19621 5.92233 8.56683 6.29295 9.02238 6.29295C9.44366 6.29295 9.79206 5.97591 9.84216 5.56792C10.5523 5.29932 11.0893 4.73021 11.3285 4.03556C11.3515 4.05866 11.3737 4.08295 11.3949 4.10868L13.3504 6.47804C13.4953 6.65361 13.5752 6.85633 13.5752 7.04884V13.377C13.5751 13.5226 13.6932 13.6406 13.8388 13.6406ZM9.02238 5.7656C8.85761 5.7656 8.72356 5.63155 8.72356 5.46677C8.72356 5.30199 8.85761 5.16794 9.02238 5.16794C9.18716 5.16794 9.32121 5.30199 9.32121 5.46677C9.32121 5.63155 9.18716 5.7656 9.02238 5.7656Z" fill="white"/>
<path d="M6.73725 14.0273C6.80472 14.0273 6.87222 14.0016 6.92369 13.9501L11.4237 9.4501C11.5267 9.34713 11.5267 9.18017 11.4237 9.07723C11.3207 8.97426 11.1538 8.97426 11.0508 9.07723L6.55082 13.5772C6.3827 13.7339 6.51169 14.0353 6.73725 14.0273Z" fill="white"/>
<path d="M7.29981 11.25C7.92981 11.25 8.44239 10.7374 8.44239 10.1074C8.44239 9.47739 7.92981 8.96481 7.29981 8.96481H7.26465C6.63465 8.96481 6.12207 9.47739 6.12207 10.1074C6.12207 10.7374 6.63465 11.25 7.26465 11.25H7.29981ZM6.64942 10.1074C6.64942 9.76817 6.92543 9.49216 7.26465 9.49216H7.29981C7.63903 9.49216 7.91504 9.76817 7.91504 10.1074C7.91504 10.4466 7.63903 10.7226 7.29981 10.7226H7.26465C6.92543 10.7226 6.64942 10.4466 6.64942 10.1074Z" fill="white"/>
<path d="M10.71 14.0273H10.7451C11.3751 14.0273 11.8877 13.5148 11.8877 12.8848C11.8877 12.2548 11.3751 11.7422 10.7451 11.7422H10.71C10.08 11.7422 9.56738 12.2548 9.56738 12.8848C9.56738 13.5148 10.08 14.0273 10.71 14.0273ZM10.71 12.2695H10.7451C11.0843 12.2695 11.3604 12.5455 11.3604 12.8848C11.3604 13.224 11.0843 13.5 10.7451 13.5H10.71C10.3707 13.5 10.0947 13.224 10.0947 12.8848C10.0947 12.5455 10.3707 12.2695 10.71 12.2695Z" fill="white"/>
</svg>
