<svg width="14" height="18" viewBox="0 0 14 18" fill="none" xmlns="http://www.w3.org/2000/svg">
<path d="M0.309108 0C0.13773 0.000621613 -0.000642824 0.140144 2.24626e-06 0.311522V14.2577C2.24626e-06 15.2537 0.113294 16.1727 0.59094 16.876C1.06857 17.5792 1.91724 17.9984 3.17532 17.9984C6.56117 18.002 9.98665 17.9984 13.3437 17.9984C13.7482 17.9891 13.7482 17.3869 13.3437 17.3778H12.4115C12.4221 15.9126 12.4115 14.4955 12.4115 13.0346H13.3437C13.515 13.0339 13.6534 12.8944 13.6528 12.723V0.311522C13.6534 0.140144 13.515 0.000680256 13.3437 0H0.309108ZM0.620648 0.620628H2.48316V12.4133H0.620648V0.620628ZM3.10378 0.620628H13.0321V12.4133H3.10378V0.620628ZM4.00444 1.24369C3.59028 1.26515 3.62241 1.88634 4.03658 1.86493H5.89848C6.31264 1.86493 6.31264 1.24369 5.89848 1.24369H4.00444ZM4.00444 2.48557C3.60025 2.51548 3.63144 3.11814 4.03658 3.1062H7.0737C7.49684 3.11558 7.49684 2.47607 7.0737 2.48557H4.00444ZM5.27783 4.96871C4.42363 4.96871 3.72504 5.66548 3.72504 6.5197C3.72504 7.3739 4.42363 8.07009 5.27783 8.07009H6.83124C7.33827 8.07009 7.78618 7.82153 8.0701 7.44338C8.35336 7.82144 8.80015 8.07009 9.30711 8.07009H10.8629C11.7172 8.07009 12.4133 7.3739 12.4133 6.5197C12.4133 5.66548 11.7171 4.96871 10.8629 4.96871H9.30711C8.80027 4.96871 8.35337 5.21751 8.0701 5.59542C7.78617 5.21743 7.33815 4.96871 6.83124 4.96871H5.27783ZM5.27783 5.58692H6.83124C7.42688 5.58692 7.75675 6.06204 7.75675 6.5197C7.75675 7.08064 7.26123 7.43711 6.83124 7.44945H5.27783C4.75673 7.44945 4.34567 7.0408 4.34567 6.5197C4.34567 5.99857 4.75672 5.58692 5.27783 5.58692ZM9.30711 5.58692H10.8629C11.3841 5.58692 11.7927 5.99857 11.7927 6.5197C11.7927 7.0408 11.3841 7.44945 10.8629 7.44945H9.30711C8.7445 7.44945 8.3841 6.99797 8.3841 6.5197C8.3841 5.99851 8.86263 5.58692 9.30711 5.58692ZM9.035 9.93258C8.63096 9.96108 8.65979 10.5634 9.06467 10.5532H12.1042C12.5274 10.5626 12.5274 9.92308 12.1042 9.93258H9.035ZM10.2417 11.7951H12.1042C12.5091 11.7869 12.5091 11.1832 12.1042 11.1745H10.2417C9.84775 11.1745 9.80734 11.7951 10.2417 11.7951ZM0.620648 13.0346H11.7927V13.6552C8.47292 13.6552 5.14786 13.6552 1.83039 13.6552C1.67165 13.6712 1.55084 13.8048 1.55099 13.9643V15.8608C1.55037 16.0927 1.7951 16.2434 2.00191 16.1383L2.79226 15.7353L3.5826 16.1383C3.78956 16.244 4.03504 16.0932 4.03413 15.8608V14.2758H11.7927V14.8965L5.89665 14.8941C5.4735 14.8847 5.4735 15.5243 5.89665 15.5148H11.7927V16.1354H4.65477C4.24986 16.1436 4.24986 16.7473 4.65477 16.756H11.7927V17.3773C8.92025 17.3773 6.04778 17.3773 3.17532 17.3773C2.04634 17.3773 1.46212 17.0538 1.1043 16.5269C0.746459 16.0001 0.620648 15.2023 0.620648 14.2571V13.0346ZM2.17164 14.2758H3.4135V15.3547L2.93227 15.1098C2.84442 15.0655 2.74074 15.0655 2.65287 15.1098L2.17164 15.3547V14.2758Z" fill="white"/>
</svg>
