<svg width="18" height="18" viewBox="0 0 18 18" fill="none" xmlns="http://www.w3.org/2000/svg">
<path d="M9.5625 7.7811C9.5625 7.47047 9.31065 7.21863 9 7.21863C8.68935 7.21863 8.4375 7.47047 8.4375 7.7811H9.5625ZM8.4375 16.0931C8.4375 16.4038 8.68935 16.6556 9 16.6556C9.31065 16.6556 9.5625 16.4038 9.5625 16.0931H8.4375ZM7.21835 3.66444C6.94943 3.82 6.85754 4.1641 7.0131 4.433C7.16865 4.70191 7.51275 4.7938 7.78162 4.63825L7.21835 3.66444ZM10.2184 4.63825C10.4873 4.7938 10.8314 4.70191 10.9869 4.433C11.1425 4.1641 11.0506 3.82 10.7816 3.66444L10.2184 4.63825ZM5.6782 1.97966C5.42339 2.15739 5.36092 2.50802 5.53865 2.76282C5.71637 3.01762 6.06701 3.0801 6.3218 2.90237L5.6782 1.97966ZM11.6782 2.90237C11.933 3.0801 12.2837 3.01762 12.4613 2.76282C12.6391 2.50802 12.5766 2.15739 12.3218 1.97966L11.6782 2.90237ZM8.4375 7.7811V16.0931H9.5625V7.7811H8.4375ZM4.13517 6.56571C5.43618 6.70864 7.11378 7.08913 8.2734 7.87912L8.90677 6.94939C7.518 6.00324 5.61907 5.59696 4.25803 5.44744L4.13517 6.56571ZM4.13517 15.5264C5.43618 15.6692 7.11378 16.0498 8.2734 16.8397L8.90677 15.91C7.518 14.9639 5.61907 14.5576 4.25803 14.408L4.13517 15.5264ZM2.4375 7.12886V13.6999H3.5625V7.12886H2.4375ZM4.25803 14.408C3.84817 14.363 3.5625 14.0378 3.5625 13.6999H2.4375C2.4375 14.6818 3.22754 15.4266 4.13517 15.5264L4.25803 14.408ZM4.25803 5.44744C3.23118 5.33463 2.4375 6.17039 2.4375 7.12886H3.5625C3.5625 6.76763 3.84452 6.53378 4.13517 6.56571L4.25803 5.44744ZM13.7419 5.44744C12.3809 5.59696 10.482 6.00324 9.09323 6.94939L9.7266 7.87912C10.8862 7.08913 12.5639 6.70864 13.8648 6.56571L13.7419 5.44744ZM13.7419 14.408C12.3809 14.5576 10.482 14.9639 9.09323 15.91L9.7266 16.8397C10.8862 16.0498 12.5639 15.6692 13.8648 15.5264L13.7419 14.408ZM14.4375 7.12886V13.6999H15.5625V7.12886H14.4375ZM13.8648 15.5264C14.7725 15.4266 15.5625 14.6818 15.5625 13.6999H14.4375C14.4375 14.0378 14.1518 14.363 13.7419 14.408L13.8648 15.5264ZM13.8648 6.56571C14.1555 6.53378 14.4375 6.76763 14.4375 7.12886H15.5625C15.5625 6.17039 14.7688 5.33463 13.7419 5.44744L13.8648 6.56571ZM8.2734 16.8397C8.70938 17.1367 9.29062 17.1367 9.7266 16.8397L9.09323 15.91C9.03937 15.9467 8.96063 15.9467 8.90677 15.91L8.2734 16.8397ZM8.2734 7.87912C8.70938 8.17613 9.29062 8.17613 9.7266 7.87912L9.09323 6.94939C9.03937 6.98605 8.96063 6.98605 8.90677 6.94939L8.2734 7.87912ZM7.78162 4.63825C8.1396 4.43119 8.5551 4.3125 9 4.3125V3.1875C8.35208 3.1875 7.74293 3.361 7.21835 3.66444L7.78162 4.63825ZM9 4.3125C9.4449 4.3125 9.8604 4.43119 10.2184 4.63825L10.7816 3.66444C10.2571 3.361 9.64792 3.1875 9 3.1875V4.3125ZM6.3218 2.90237C7.08085 2.37292 8.00332 2.0625 9 2.0625V0.9375C7.7658 0.9375 6.6199 1.3228 5.6782 1.97966L6.3218 2.90237ZM9 2.0625C9.99668 2.0625 10.9192 2.37292 11.6782 2.90237L12.3218 1.97966C11.3801 1.3228 10.2342 0.9375 9 0.9375V2.0625Z" fill="white"/>
</svg>
