<svg xmlns="http://www.w3.org/2000/svg" width="16" height="16" viewBox="0 0 16 16" fill="none"><g clip-path="url(#clip0_2014_865)"><path d="M7.99967 8.00004H7.49967C7.49967 8.21526 7.63739 8.40632 7.84156 8.47438L7.99967 8.00004ZM8.49967 4.66671C8.49967 4.39056 8.27582 4.16671 7.99967 4.16671C7.72353 4.16671 7.49967 4.39056 7.49967 4.66671H8.49967ZM9.84156 9.14105C10.1035 9.22837 10.3867 9.08679 10.474 8.82482C10.5613 8.56285 10.4198 8.27969 10.1578 8.19237L9.84156 9.14105ZM8.49967 8.00004V4.66671H7.49967V8.00004H8.49967ZM7.84156 8.47438L9.84156 9.14105L10.1578 8.19237L8.15779 7.5257L7.84156 8.47438ZM14.1663 8.00004C14.1663 11.4058 11.4054 14.1667 7.99967 14.1667V15.1667C11.9577 15.1667 15.1663 11.9581 15.1663 8.00004H14.1663ZM7.99967 14.1667C4.59392 14.1667 1.83301 11.4058 1.83301 8.00004H0.833008C0.833008 11.9581 4.04163 15.1667 7.99967 15.1667V14.1667ZM1.83301 8.00004C1.83301 4.59428 4.59392 1.83337 7.99967 1.83337V0.833374C4.04163 0.833374 0.833008 4.042 0.833008 8.00004H1.83301ZM7.99967 1.83337C11.4054 1.83337 14.1663 4.59428 14.1663 8.00004H15.1663C15.1663 4.042 11.9577 0.833374 7.99967 0.833374V1.83337Z" fill="#28303F"></path></g><defs><clipPath id="clip0_2014_865"><rect width="16" height="16" fill="white"></rect></clipPath></defs></svg>