<svg width="16" height="21" viewBox="0 0 16 21" fill="none" xmlns="http://www.w3.org/2000/svg">
<path d="M14.0365 6.91465H13.0841V5.00989C13.0841 2.38132 10.9507 0.247986 8.32217 0.247986C5.6936 0.247986 3.56027 2.38132 3.56027 5.00989V6.91465H2.60789C1.56027 6.91465 0.703125 7.7718 0.703125 8.81941V18.3432C0.703125 19.3908 1.56027 20.248 2.60789 20.248H14.0365C15.0841 20.248 15.9412 19.3908 15.9412 18.3432V8.81941C15.9412 7.7718 15.0841 6.91465 14.0365 6.91465ZM8.32217 15.4861C7.27455 15.4861 6.41741 14.6289 6.41741 13.5813C6.41741 12.5337 7.27455 11.6766 8.32217 11.6766C9.36979 11.6766 10.2269 12.5337 10.2269 13.5813C10.2269 14.6289 9.36979 15.4861 8.32217 15.4861ZM11.2746 6.91465H5.36979V5.00989C5.36979 3.38132 6.6936 2.05751 8.32217 2.05751C9.95074 2.05751 11.2746 3.38132 11.2746 5.00989V6.91465Z" fill="#4D4D4D"/>
</svg>
