<svg width="14" height="14" viewBox="0 0 14 14" fill="none" xmlns="http://www.w3.org/2000/svg">
<g id="Vector">
<path d="M13.6297 2.17901L7.16859 0.0253034C7.05896 -0.00843447 6.94171 -0.00843447 6.83208 0.0253034L0.377701 2.17901H0.36424L0.296937 2.21266H0.290206L0.222903 2.25304C0.222903 2.25977 0.216173 2.25977 0.209443 2.2665L0.1556 2.31361L0.108488 2.36745C0.108488 2.37418 0.101757 2.37418 0.101757 2.38091L0.0613755 2.44149C0.0613755 2.44822 0.0613754 2.44822 0.0546451 2.45495L0.0277239 2.51552L0.00753297 2.58955V2.60975C0.000894446 2.63612 -0.00137912 2.6634 0.000802624 2.69051V8.07476C0.000802624 8.21756 0.0575294 8.35451 0.158504 8.45549C0.259478 8.55646 0.396429 8.61319 0.539228 8.61319C0.682027 8.61319 0.818978 8.55646 0.919952 8.45549C1.02093 8.35451 1.07765 8.21756 1.07765 8.07476V3.43757L3.33904 4.19137C2.9142 4.8714 2.69022 5.65766 2.69293 6.45949C2.69318 7.18872 2.87856 7.90596 3.23171 8.54398C3.58486 9.182 4.09421 9.71991 4.71203 10.1073C3.42815 10.593 2.33209 11.4746 1.58243 12.6245C1.50602 12.7453 1.48013 12.8913 1.51034 13.031C1.54056 13.1708 1.62445 13.2931 1.74396 13.3715C1.8026 13.4104 1.86837 13.4372 1.93746 13.4505C2.00656 13.4637 2.07759 13.4631 2.14645 13.4487C2.21531 13.4343 2.28063 13.4064 2.33862 13.3666C2.39661 13.3268 2.44613 13.2758 2.48429 13.2167C2.973 12.4639 3.64213 11.8453 4.43084 11.417C5.21956 10.9886 6.10283 10.7643 7.00033 10.7643C7.89784 10.7643 8.78111 10.9886 9.56982 11.417C10.3585 11.8453 11.0277 12.4639 11.5164 13.2167C11.5655 13.2914 11.6325 13.3526 11.7112 13.3949C11.7899 13.4372 11.8779 13.4592 11.9673 13.459C12.0705 13.4601 12.1715 13.4296 12.2567 13.3715C12.3762 13.2931 12.4601 13.1708 12.4903 13.031C12.5205 12.8913 12.4947 12.7453 12.4182 12.6245C11.6686 11.4746 10.5725 10.593 9.28864 10.1073C9.90646 9.71991 10.4158 9.182 10.769 8.54398C11.1221 7.90596 11.3075 7.18872 11.3077 6.45949C11.3105 5.65766 11.0865 4.8714 10.6616 4.19137L13.6297 3.20201C13.7374 3.16661 13.8312 3.0981 13.8977 3.00625C13.9642 2.9144 14 2.8039 14 2.69051C14 2.57712 13.9642 2.46662 13.8977 2.37477C13.8312 2.28292 13.7374 2.21441 13.6297 2.17901ZM7.00033 9.69004C6.14354 9.69004 5.32183 9.34968 4.71599 8.74383C4.11014 8.13799 3.76978 7.31628 3.76978 6.45949C3.77108 5.77012 3.99015 5.09879 4.3957 4.54135L6.83208 5.35572C6.94137 5.39167 7.0593 5.39167 7.16859 5.35572L9.60497 4.54135C10.0105 5.09879 10.2296 5.77012 10.2309 6.45949C10.2309 7.31628 9.89053 8.13799 9.28468 8.74383C8.67883 9.34968 7.85713 9.69004 7.00033 9.69004Z" fill="#7BA631"/>
<path d="M13.6297 2.17901L7.16859 0.0253034C7.05896 -0.00843447 6.94171 -0.00843447 6.83208 0.0253034L0.377701 2.17901H0.36424L0.296937 2.21266H0.290206L0.222903 2.25304C0.222903 2.25977 0.216173 2.25977 0.209443 2.2665L0.1556 2.31361L0.108488 2.36745C0.108488 2.37418 0.101757 2.37418 0.101757 2.38091L0.0613755 2.44149C0.0613755 2.44822 0.0613754 2.44822 0.0546451 2.45495L0.0277239 2.51552L0.00753297 2.58955V2.60975C0.000894446 2.63612 -0.00137912 2.6634 0.000802624 2.69051V8.07476C0.000802624 8.21756 0.0575294 8.35451 0.158504 8.45549C0.259478 8.55646 0.396429 8.61319 0.539228 8.61319C0.682027 8.61319 0.818978 8.55646 0.919952 8.45549C1.02093 8.35451 1.07765 8.21756 1.07765 8.07476V3.43757L3.33904 4.19137C2.9142 4.8714 2.69022 5.65766 2.69293 6.45949C2.69318 7.18872 2.87856 7.90596 3.23171 8.54398C3.58486 9.182 4.09421 9.71991 4.71203 10.1073C3.42815 10.593 2.33209 11.4746 1.58243 12.6245C1.50602 12.7453 1.48013 12.8913 1.51034 13.031C1.54056 13.1708 1.62445 13.2931 1.74396 13.3715C1.8026 13.4104 1.86837 13.4372 1.93746 13.4505C2.00656 13.4637 2.07759 13.4631 2.14645 13.4487C2.21531 13.4343 2.28063 13.4064 2.33862 13.3666C2.39661 13.3268 2.44613 13.2758 2.48429 13.2167C2.973 12.4639 3.64213 11.8453 4.43084 11.417C5.21956 10.9886 6.10283 10.7643 7.00033 10.7643C7.89784 10.7643 8.78111 10.9886 9.56982 11.417C10.3585 11.8453 11.0277 12.4639 11.5164 13.2167C11.5655 13.2914 11.6325 13.3526 11.7112 13.3949C11.7899 13.4372 11.8779 13.4592 11.9673 13.459C12.0705 13.4601 12.1715 13.4296 12.2567 13.3715C12.3762 13.2931 12.4601 13.1708 12.4903 13.031C12.5205 12.8913 12.4947 12.7453 12.4182 12.6245C11.6686 11.4746 10.5725 10.593 9.28864 10.1073C9.90646 9.71991 10.4158 9.182 10.769 8.54398C11.1221 7.90596 11.3075 7.18872 11.3077 6.45949C11.3105 5.65766 11.0865 4.8714 10.6616 4.19137L13.6297 3.20201C13.7374 3.16661 13.8312 3.0981 13.8977 3.00625C13.9642 2.9144 14 2.8039 14 2.69051C14 2.57712 13.9642 2.46662 13.8977 2.37477C13.8312 2.28292 13.7374 2.21441 13.6297 2.17901ZM7.00033 9.69004C6.14354 9.69004 5.32183 9.34968 4.71599 8.74383C4.11014 8.13799 3.76978 7.31628 3.76978 6.45949C3.77108 5.77012 3.99015 5.09879 4.3957 4.54135L6.83208 5.35572C6.94137 5.39167 7.0593 5.39167 7.16859 5.35572L9.60497 4.54135C10.0105 5.09879 10.2296 5.77012 10.2309 6.45949C10.2309 7.31628 9.89053 8.13799 9.28468 8.74383C8.67883 9.34968 7.85713 9.69004 7.00033 9.69004Z" fill="url(#paint0_linear_8_2116)"/>
</g>
<defs>
<linearGradient id="paint0_linear_8_2116" x1="7" y1="-5.41537e-09" x2="6.82532" y2="13.6096" gradientUnits="userSpaceOnUse">
<stop stop-color="#59CDA5"/>
<stop offset="1" stop-color="#1EA677"/>
</linearGradient>
</defs>
</svg>
